<svg id="Logo" xmlns="http://www.w3.org/2000/svg" viewBox="0 0 262.501 64">
  <defs>
    <style>
      .cls-1 {
        fill: #1d1d1b;
      }

      .cls-2 {
        fill: #fff;
      }

      .cls-3 {
        fill: #e28c1a;
      }
    </style>
  </defs>
  <path id="Path_67" data-name="Path 67" class="cls-1" d="M551.4,115.7h13.575c4.5,0,7.36,3.147,7.36,6.944,0,2.965-1.2,5.175-3.979,6.293v.078c2.7.7,3.485,3.355,3.667,5.877.1,1.586.078,4.551,1.066,5.955H567.55c-.676-1.586-.6-4-.884-6.033-.39-2.653-1.4-3.8-4.187-3.8h-5.539v9.83H551.4Zm5.513,11.39h6.059c2.471,0,3.8-1.066,3.8-3.589,0-2.419-1.352-3.485-3.8-3.485h-6.059Z" transform="translate(-408.005 -85.611)"/>
  <path id="Path_68" data-name="Path 68" class="cls-1" d="M647.6,115.7h18.8v4.655H653.113v5.383h12.2v4.317h-12.2v6.163h13.575v4.655H647.6Z" transform="translate(-479.187 -85.611)"/>
  <path id="Path_69" data-name="Path 69" class="cls-1" d="M739.216,120.355H731.7V115.7h20.6v4.655h-7.542v20.518h-5.539Z" transform="translate(-541.416 -85.611)"/>
  <path id="Path_70" data-name="Path 70" class="cls-1" d="M824.026,115.7h13.549c4.5,0,7.36,3.147,7.36,6.944,0,2.965-1.2,5.175-3.979,6.293v.078c2.7.7,3.485,3.355,3.667,5.877.1,1.586.078,4.551,1.066,5.955h-5.539c-.676-1.586-.6-4-.884-6.033-.39-2.653-1.4-3.8-4.187-3.8h-5.539v9.83H824V115.7Zm5.513,11.39H835.6c2.471,0,3.8-1.066,3.8-3.589,0-2.419-1.352-3.485-3.8-3.485h-6.059Z" transform="translate(-609.713 -85.611)"/>
  <path id="Path_71" data-name="Path 71" class="cls-1" d="M926.679,113.4c7.776,0,12.353,5.8,12.353,13.289,0,7.256-4.577,13.081-12.353,13.081S914.3,133.944,914.3,126.689c0-7.464,4.577-13.289,12.379-13.289m0,21.715c4.967,0,6.84-4.239,6.84-8.426,0-4.395-1.872-8.634-6.84-8.634s-6.839,4.239-6.839,8.634c0,4.187,1.872,8.426,6.839,8.426" transform="translate(-676.53 -83.91)"/>
  <path id="Path_72" data-name="Path 72" class="cls-2" d="M246.925,233.3c-1.482.78-2.991,1.508-4.525,2.158.13.338.26.65.39.988a.482.482,0,0,0,.182.052,4.792,4.792,0,0,0,.65.13c1.4-.572,2.783-1.222,4.161-1.924a5.793,5.793,0,0,1-.858-1.4" transform="translate(-179.362 -172.629)"/>
  <path id="Path_73" data-name="Path 73" class="cls-3" d="M580.665,62.351c0-1.326-.26-1.9-1.092-1.9-.936,0-1.144.936-1.144,3.511,0,2.757.39,3.251,1.17,3.251.676,0,1.144-.338,1.144-2.314h1.846c0,1.976-.494,3.667-2.913,3.667-2.757,0-3.095-1.976-3.095-4.733,0-2.783.338-4.733,3.095-4.733,2.627,0,2.835,1.924,2.835,3.251Zm4.889,6.059V59.282H587.4V66.9h3.251V68.41Zm9.57-9.128v6.371c0,.91.208,1.586,1.066,1.586s1.066-.676,1.066-1.586V59.282H599.1v6.371a2.615,2.615,0,0,1-2.913,2.939c-1.508,0-2.913-.494-2.913-2.939V59.282Zm7.074,0h3.069c1.508,0,2.6.572,2.6,2.315a1.911,1.911,0,0,1-1.378,2v.026a1.928,1.928,0,0,1,1.664,2.132c0,1.43-.7,2.679-2.861,2.679H602.2Zm1.846,3.745h.52c1.014,0,1.482-.338,1.482-1.2s-.416-1.2-1.326-1.2h-.676v2.393Zm0,4.031h.728c.884,0,1.482-.312,1.482-1.378s-.6-1.378-1.4-1.378h-.806Zm12.275-7.776V60.79h-3.251v2.158h3.069v1.508h-3.069V66.9h3.381V68.41h-5.227V59.282Zm9.83,0h3.017c2.549,0,3.017,1.742,3.017,4.421,0,3.225-.7,4.681-3.121,4.681h-2.913ZM628,67.058h.806c1.274,0,1.534-.806,1.534-3.277,0-2.08-.156-3.121-1.56-3.121H628Zm8.66-7.776h2.288l2.419,9.128h-1.924l-.416-1.924H636.6l-.416,1.924h-1.924Zm.234,5.7h1.794l-.884-4.109h-.026ZM570.6,63.053H549.9v.7h20.7Zm97.339,0h-20.7v.7h20.7Z" transform="translate(-406.895 -43.731)"/>
  <rect id="Rectangle_1091" data-name="Rectangle 1091" class="cls-1" width="245.572" height="3.355" transform="translate(16.436 60.437)"/>
  <path id="Path_74" data-name="Path 74" class="cls-2" d="M65.585,110.236,64.7,109.3H62.984l-.884.884h2.106l.936.936h1.69l.91-.884Z" transform="translate(-45.95 -80.876)"/>
  <path id="Path_75" data-name="Path 75" class="cls-2" d="M37.285,110.236,36.4,109.3H34.684l-.884.884h2.106l.936.936h1.716l.884-.884Z" transform="translate(-25.01 -80.876)"/>
  <path id="Path_76" data-name="Path 76" class="cls-2" d="M8.985,110.236,8.1,109.3H6.41l-.91.884H7.606l.936.936h1.716l.884-.884Z" transform="translate(-4.07 -80.876)"/>
  <path id="Path_77" data-name="Path 77" class="cls-1" d="M301.679,142.869q-.663,1.872-1.4,3.667c-.78-2.288-1.664-4.551-2.575-6.735q1.6.7,3.2,1.482c.286.52.546,1.066.78,1.586" transform="translate(-220.281 -103.444)"/>
  <path id="Path_78" data-name="Path 78" class="cls-1" d="M305.709,159.335c-1.118,1.248-2.237,2.445-3.381,3.641-.156-2.6-.39-5.2-.728-7.776,1.352.728,2.7,1.482,4.031,2.262.052.624.052,1.248.078,1.872" transform="translate(-223.167 -114.839)"/>
  <path id="Path_79" data-name="Path 79" class="cls-1" d="M304.195,173.8c-1.456.754-2.913,1.508-4.395,2.21.286-2.861.442-5.747.494-8.608,1.4,1.378,2.757,2.809,4.109,4.265-.052.7-.13,1.43-.208,2.132" transform="translate(-221.835 -123.866)"/>
  <path id="Path_80" data-name="Path 80" class="cls-2" d="M240.8,164.805c0-2.939,1.378-5.305,3.095-5.305,1.69,0,3.095,2.367,3.095,5.305s-1.378,5.305-3.095,5.305-3.095-2.367-3.095-5.305" transform="translate(-178.178 -118.021)"/>
  <path id="Path_81" data-name="Path 81" class="cls-1" d="M245.471,171.982a.056.056,0,0,0,.052-.052.1.1,0,0,0-.026-.078c-1.092-.442-1.9-2.132-1.9-4.161s.806-3.719,1.9-4.161c.026,0,.026-.026.026-.078a.056.056,0,0,0-.052-.052c-1.378,0-2.471,1.924-2.471,4.265,0,2.393,1.118,4.317,2.471,4.317" transform="translate(-179.806 -120.907)"/>
  <path id="Path_82" data-name="Path 82" class="cls-1" d="M250.3,172.8c0-1.378.65-2.5,1.456-2.5s1.456,1.118,1.456,2.5-.65,2.5-1.456,2.5-1.456-1.118-1.456-2.5" transform="translate(-185.208 -126.012)"/>
  <path id="Path_83" data-name="Path 83" class="cls-1" d="M251.8,173.85c0-1.066.468-1.95,1.04-1.95s1.04.884,1.04,1.95-.468,1.95-1.04,1.95-1.04-.884-1.04-1.95" transform="translate(-186.318 -127.196)"/>
  <path id="Path_84" data-name="Path 84" class="cls-2" d="M250.7,173.85c0-1.066.468-1.95,1.04-1.95s1.04.884,1.04,1.95-.468,1.95-1.04,1.95-1.04-.884-1.04-1.95" transform="translate(-185.504 -127.196)"/>
  <path id="Path_85" data-name="Path 85" class="cls-1" d="M248.7,174.294c0-.988.728-1.794,1.248-1.794s.962.806.962,1.794-.442,1.794-.962,1.794-1.248-.806-1.248-1.794" transform="translate(-184.024 -127.64)"/>
  <path id="Path_86" data-name="Path 86" class="cls-1" d="M254.7,188.346c0-.312.13-.546.286-.546s.286.26.286.546c0,.312-.13.546-.286.546s-.286-.234-.286-.546" transform="translate(-188.464 -138.961)"/>
  <path id="Path_87" data-name="Path 87" class="cls-1" d="M258.723,185.636a.829.829,0,0,1,0-.78c.13-.208.312-.208.416,0a.829.829,0,0,1,0,.78c-.1.234-.286.234-.416,0" transform="translate(-191.368 -136.668)"/>
  <path id="Path_88" data-name="Path 88" class="cls-1" d="M260.686,178.392c-.156,0-.286-.26-.286-.546,0-.312.13-.546.286-.546s.286.26.286.546c0,.312-.13.546-.286.546" transform="translate(-192.681 -131.192)"/>
  <path id="Path_89" data-name="Path 89" class="cls-1" d="M259.139,170.736a.217.217,0,0,1-.416,0,.829.829,0,0,1,0-.78c.13-.208.312-.208.416,0a.829.829,0,0,1,0,.78" transform="translate(-191.368 -125.642)"/>
  <path id="Path_90" data-name="Path 90" class="cls-1" d="M255.372,167.246c0,.312-.13.546-.286.546s-.286-.26-.286-.546c0-.312.13-.546.286-.546s.286.26.286.546" transform="translate(-188.538 -123.349)"/>
  <path id="Path_91" data-name="Path 91" class="cls-1" d="M251.139,169.956a.829.829,0,0,1,0,.78.217.217,0,0,1-.416,0,.829.829,0,0,1,0-.78c.13-.208.312-.208.416,0" transform="translate(-185.448 -125.642)"/>
  <path id="Path_92" data-name="Path 92" class="cls-1" d="M249.377,177.2c.156,0,.286.26.286.546,0,.312-.13.546-.286.546s-.286-.26-.286-.546c-.026-.286.1-.546.286-.546" transform="translate(-184.31 -131.118)"/>
  <path id="Path_93" data-name="Path 93" class="cls-1" d="M250.778,184.856c.13-.208.312-.208.416,0a.829.829,0,0,1,0,.78.217.217,0,0,1-.416,0,1.014,1.014,0,0,1,0-.78" transform="translate(-185.504 -136.668)"/>
  <path id="Path_94" data-name="Path 94" class="cls-1" d="M245.733,147c0,6.345,7.8,9.492-11,10.584C231.04,157.788,230,153.341,230,147s2.991-11.156,6.683-11.495c20.05-1.768,9.05,5.149,9.05,11.495" transform="translate(-170.187 -100.056)"/>
  <path id="Path_95" data-name="Path 95" class="cls-2" d="M253.1,135.678c-.416.026-.858.078-1.326.1a3.972,3.972,0,0,0-.936.182.662.662,0,0,1-.182.052c-.078.078-.182.156-.26.234.416.494.832.988,1.222,1.508.858-.7,1.69-1.43,2.523-2.158-.338.026-.676.052-1.04.078" transform="translate(-185.282 -100.336)"/>
  <path id="Path_96" data-name="Path 96" class="cls-2" d="M255.857,141.9c-1.742,1.508-3.511,2.939-5.357,4.265.39.52.754,1.04,1.118,1.586,1.144-.806,2.262-1.638,3.381-2.523a9.873,9.873,0,0,1,1.456-2.523c-.208-.26-.39-.52-.6-.806" transform="translate(-185.356 -104.998)"/>
  <path id="Path_97" data-name="Path 97" class="cls-2" d="M251,172.384c.338.546.676,1.118.988,1.664.728-.416,1.43-.858,2.132-1.326a19.851,19.851,0,0,1,.182-2.523c-1.092.78-2.184,1.482-3.3,2.184" transform="translate(-185.726 -125.938)"/>
  <path id="Path_98" data-name="Path 98" class="cls-2" d="M253.589,191.2c-1.2.7-2.393,1.352-3.589,2,.286.572.572,1.144.858,1.742,1.066-.52,2.106-1.092,3.147-1.664a18.4,18.4,0,0,1-.416-2.08" transform="translate(-184.986 -141.477)"/>
  <path id="Path_99" data-name="Path 99" class="cls-2" d="M252.991,208.7c-1.846.962-3.719,1.846-5.591,2.653.182.39.338.806.494,1.222l.234.078a4.042,4.042,0,0,0,.806.182c1.716-.728,3.433-1.508,5.149-2.393a8.993,8.993,0,0,1-1.092-1.742" transform="translate(-183.062 -154.426)"/>
  <path id="Path_100" data-name="Path 100" class="cls-1" d="M252.705,206.1q-2.614,1.365-5.305,2.5c.26.6.494,1.2.728,1.82,1.846-.754,3.693-1.586,5.513-2.5a10.919,10.919,0,0,1-.936-1.82" transform="translate(-183.062 -152.502)"/>
  <path id="Path_101" data-name="Path 101" class="cls-1" d="M253.411,188.1c-1.17.676-2.315,1.326-3.511,1.924.286.572.572,1.144.858,1.742.988-.494,2-1.014,2.991-1.56a16.222,16.222,0,0,1-.338-2.106" transform="translate(-184.912 -139.183)"/>
  <path id="Path_102" data-name="Path 102" class="cls-1" d="M251,168.962c.338.546.676,1.092.988,1.664.728-.442,1.456-.884,2.158-1.326a13.953,13.953,0,0,1,.312-2.6c-1.118.78-2.289,1.534-3.459,2.262" transform="translate(-185.726 -123.349)"/>
  <path id="Path_103" data-name="Path 103" class="cls-1" d="M255.857,138.7c-1.742,1.508-3.511,2.939-5.357,4.265.39.52.754,1.04,1.118,1.586q2.067-1.443,4.057-3.043a10.335,10.335,0,0,1,1.092-1.56c-.286-.416-.6-.832-.91-1.248" transform="translate(-185.356 -102.63)"/>
  <path id="Path_104" data-name="Path 104" class="cls-2" d="M265.255,135.431c-1.118.884-3.719,2.861-4.837,3.667-.364-.546-.728-1.066-1.118-1.586.988-.7,1.95-1.456,2.913-2.236a13.268,13.268,0,0,1,3.043.156" transform="translate(-191.867 -100.089)"/>
  <path id="Path_105" data-name="Path 105" class="cls-1" d="M264.4,135.256c-1.3,1.04-2.627,2.054-3.979,2.991-.364-.546-.728-1.066-1.118-1.586.6-.442,1.2-.884,1.794-1.352,1.274-.078,2.367-.078,3.3-.052" transform="translate(-191.867 -100.07)"/>
  <path id="Path_106" data-name="Path 106" class="cls-1" d="M253.036,136a3.974,3.974,0,0,0-.936.182c.26.312.52.65.78.962l1.482-1.248c-.416.052-.858.078-1.326.1" transform="translate(-186.54 -100.558)"/>
  <path id="Path_107" data-name="Path 107" class="cls-2" d="M153.377,193.868c0,2.419-1.326,4.369-2.939,4.369s-2.939-1.95-2.939-4.369,1.326-4.369,2.939-4.369c1.638-.026,2.939,1.95,2.939,4.369" transform="translate(-109.142 -140.219)"/>
  <path id="Path_108" data-name="Path 108" class="cls-1" d="M158.821,192.7a.091.091,0,0,0-.052.026c0,.026,0,.052.026.052,1.04.364,1.82,1.768,1.82,3.433s-.78,3.069-1.82,3.433c-.026,0-.052.026-.026.052,0,.026.026.026.052.026,1.3,0,2.367-1.586,2.367-3.511-.026-1.924-1.066-3.511-2.367-3.511" transform="translate(-117.472 -142.587)"/>
  <path id="Path_109" data-name="Path 109" class="cls-1" d="M153.257,200.454c0,1.144-.624,2.054-1.378,2.054s-1.378-.91-1.378-2.054.624-2.054,1.378-2.054,1.378.91,1.378,2.054" transform="translate(-111.361 -146.805)"/>
  <path id="Path_110" data-name="Path 110" class="cls-1" d="M153.976,202.112c0,.884-.442,1.612-.988,1.612S152,203,152,202.112s.442-1.612.988-1.612c.546.026.988.728.988,1.612" transform="translate(-112.471 -148.359)"/>
  <path id="Path_111" data-name="Path 111" class="cls-2" d="M155.076,202.112c0,.884-.442,1.612-.988,1.612s-.988-.728-.988-1.612.442-1.612.988-1.612c.546.026.988.728.988,1.612" transform="translate(-113.285 -148.359)"/>
  <path id="Path_112" data-name="Path 112" class="cls-1" d="M156.606,202.482a1.462,1.462,0,0,1-1.2,1.482c-.52,0-.91-.676-.91-1.482,0-.832.416-1.482.91-1.482a1.508,1.508,0,0,1,1.2,1.482" transform="translate(-114.321 -148.729)"/>
  <path id="Path_113" data-name="Path 113" class="cls-1" d="M155.272,196.668c0,.26-.13.468-.286.468s-.286-.208-.286-.468.13-.468.286-.468a.455.455,0,0,1,.286.468" transform="translate(-114.469 -145.177)"/>
  <path id="Path_114" data-name="Path 114" class="cls-1" d="M151.468,199.012a.716.716,0,0,1,0,.65.208.208,0,0,1-.39,0,.716.716,0,0,1,0-.65.208.208,0,0,1,.39,0" transform="translate(-111.731 -147.156)"/>
  <path id="Path_115" data-name="Path 115" class="cls-1" d="M149.586,205c.156,0,.286.208.286.468s-.13.468-.286.468-.286-.208-.286-.468c.026-.26.13-.468.286-.468" transform="translate(-110.474 -151.688)"/>
  <path id="Path_116" data-name="Path 116" class="cls-1" d="M150.978,211.212a.208.208,0,0,1,.39,0,.716.716,0,0,1,0,.65.208.208,0,0,1-.39,0,.716.716,0,0,1,0-.65" transform="translate(-111.657 -156.184)"/>
  <path id="Path_117" data-name="Path 117" class="cls-1" d="M154.7,214.068c0-.26.13-.468.286-.468s.286.208.286.468-.13.468-.286.468-.286-.208-.286-.468" transform="translate(-114.469 -158.052)"/>
  <path id="Path_118" data-name="Path 118" class="cls-1" d="M158.678,211.862a.716.716,0,0,1,0-.65.208.208,0,0,1,.39,0,.716.716,0,0,1,0,.65.208.208,0,0,1-.39,0" transform="translate(-117.355 -156.184)"/>
  <path id="Path_119" data-name="Path 119" class="cls-1" d="M160.386,205.836c-.156,0-.286-.208-.286-.468s.13-.468.286-.468.286.208.286.468-.13.468-.286.468" transform="translate(-118.465 -151.614)"/>
  <path id="Path_120" data-name="Path 120" class="cls-1" d="M159.068,199.562a.208.208,0,0,1-.39,0,.716.716,0,0,1,0-.65.208.208,0,0,1,.39,0,.716.716,0,0,1,0,.65" transform="translate(-117.355 -147.082)"/>
  <path id="Path_121" data-name="Path 121" class="cls-1" d="M195.1,181.332c-.364.858-.728,1.716-1.118,2.575-.65-1.612-1.326-3.173-2.08-4.707.858.338,1.716.676,2.575,1.04q.312.507.624,1.092" transform="translate(-141.995 -132.598)"/>
  <path id="Path_122" data-name="Path 122" class="cls-1" d="M198.3,192.787c-.884.858-1.794,1.716-2.731,2.549-.13-1.82-.312-3.615-.572-5.435,1.092.52,2.184,1.04,3.251,1.586.026.442.026.858.052,1.3" transform="translate(-144.289 -140.515)"/>
  <path id="Path_123" data-name="Path 123" class="cls-1" d="M197.037,202.8c-1.17.546-2.367,1.04-3.537,1.534.208-2,.364-4,.416-6.033,1.118.962,2.236,1.95,3.329,2.991-.078.52-.13,1.014-.208,1.508" transform="translate(-143.179 -146.731)"/>
  <path id="Path_124" data-name="Path 124" class="cls-1" d="M183.678,176.7c-.338,0-.234.078-.286.182-.026.1.624.13.728.182,2.288,1.092,4.057,3.745,4.057,7.672,0,3.511-1.768,6.735-4.057,7.828-.1.052-.78-.1-.728,0a.293.293,0,0,0,.286.182c2.965,0,5.383-3.589,5.383-8.036,0-4.421-2.419-8.01-5.383-8.01" transform="translate(-135.697 -130.748)"/>
  <path id="Path_125" data-name="Path 125" class="cls-2" d="M158.017,180.6c-1.4,1.066-2.835,2.054-4.317,2.991.312.364.6.728.91,1.118.91-.572,1.82-1.144,2.731-1.768a8.033,8.033,0,0,1,1.17-1.768c-.182-.182-.338-.39-.494-.572" transform="translate(-113.729 -133.634)"/>
  <path id="Path_126" data-name="Path 126" class="cls-1" d="M158.017,178.4c-1.4,1.066-2.835,2.054-4.317,2.991.312.364.6.728.91,1.118,1.118-.676,2.21-1.378,3.277-2.132a6.233,6.233,0,0,1,.884-1.092c-.26-.312-.494-.6-.754-.884" transform="translate(-113.729 -132.006)"/>
  <path id="Path_127" data-name="Path 127" class="cls-2" d="M165.611,176.03c-.91.624-2.991,2-3.927,2.549-.286-.364-.6-.754-.884-1.118.78-.494,1.586-1.014,2.341-1.56a12,12,0,0,1,2.471.13" transform="translate(-118.983 -130.156)"/>
  <path id="Path_128" data-name="Path 128" class="cls-1" d="M177.531,113.2,158,118.4l-1.976,4.369-9.882.026a18.186,18.186,0,0,0-4.161,7.048c-2.627.65-4.681,3.823-4.681,7.906,0,4.447,2.419,7.8,5.383,8.036,6.97.572,9.336,0,9.752-1.2a8.378,8.378,0,0,0,2.315-4.447h11.208v-3.927H160.6l1.118-.728-.234-1.508.468-.13.1-3.043,3.225-.182,5.175-6.267,5.981-.832,1.82-7.464Z" transform="translate(-101.594 -83.762)"/>
  <path id="Path_129" data-name="Path 129" class="cls-1" d="M164.909,175.951c-1.066.728-2.132,1.43-3.225,2.08-.286-.364-.6-.754-.884-1.118.494-.312.962-.624,1.456-.936,1.014-.052,1.9-.052,2.653-.026" transform="translate(-118.983 -130.181)"/>
  <path id="Path_130" data-name="Path 130" class="cls-1" d="M155.754,176.478a3.817,3.817,0,0,0-.754.13c.208.234.416.442.624.676.39-.286.806-.572,1.2-.884-.338.026-.7.052-1.066.078" transform="translate(-114.691 -130.526)"/>
  <path id="Path_131" data-name="Path 131" class="cls-2" d="M473.9,162.8l1.794.078,1.69,1.222,2.991,1.3,3.3-.1,1.508,1.82-2.679,6.97c.026.026-5.149,9.1-8.608-11.286" transform="translate(-350.659 -120.463)"/>
  <path id="Path_132" data-name="Path 132" class="cls-2" d="M246.952,36.105l-2.6.52-.078-.338a.627.627,0,0,1,.1-.468.589.589,0,0,1,.39-.26l1.4-.286a.544.544,0,0,1,.442.1.589.589,0,0,1,.26.39Z" transform="translate(-180.741 -26.093)"/>
  <g id="Group_323" data-name="Group 323" transform="translate(58.565 5.058)">
    <path id="Path_133" data-name="Path 133" class="cls-1" d="M229.647,37.417s-3.121,5.513-4.447,19.244l6.137,6.5,2.549,3.849,8.582-1.612,4.161-2.783.364-4.811L249.021,34.4Zm16.072,14.745c-.052.546-.7.988-1.2,1.092-3.173.52-15.941,1.846-16.54-1.352-.754-3.953,2.809-13.991,2.809-13.991l15.369-2.289a1.479,1.479,0,0,1,.988.234.874.874,0,0,1,.286.728Z" transform="translate(-225.2 -30.512)"/>
    <path id="Path_134" data-name="Path 134" class="cls-1" d="M270.62,24.613l-.416-.936L257.565,20.4c-.182-.494-.728-1.04-1.248-.936l-2.575.494c-.52.1-.858.78-.91,1.274L240.583,23.78a.752.752,0,0,0-.312-.39.82.82,0,0,0-.6-.13l-1.872.364a.875.875,0,0,0-.52.338.748.748,0,0,0-.13.52l-1.56.312-.39,1.17L257.695,22.3Z" transform="translate(-232.599 -19.451)"/>
    <path id="Path_135" data-name="Path 135" class="cls-1" d="M315.432,34.4,313.3,58.9c8.712-3.8,15.109-6.631,15.109-6.631l-1.456-16.072ZM323,52.006a49.955,49.955,0,0,1-6.527,2.7c-1.014-.468-1.274-2.445-1.118-5.175l7.906-2.262Zm.338-6.605a5.866,5.866,0,0,1-.1.728c-.572,1.2-6.423,1.2-7.672,1.17a112.994,112.994,0,0,1,2-11.338c.832-.026,4,.416,6.293.754Zm.988,5.851V36.793c1.118.156,1.924.286,1.924.286s.416,8.5.52,11.364C326.8,49.379,325.757,50.341,324.326,51.252Z" transform="translate(-290.389 -30.512)"/>
  </g>
  <path id="Path_136" data-name="Path 136" class="cls-2" d="M174.6,121.757c.494-7.022,18.62-6.605,18.62-6.605l11.417-.052-21.923,6.293Z" transform="translate(-129.194 -85.167)"/>
  <path id="Path_137" data-name="Path 137" class="cls-1" d="M242.84,176.108a14.781,14.781,0,0,0-.494-3.823h.182c-2.08-13.549-15.4-5.591-15.4-5.591h.754c-1.794,1.768-2.887,5.591-2.887,9.44,0,5.1,3.381,8.946,6.319,9.206,7.8.728,9.622-.182,9.414-1.9A12.392,12.392,0,0,0,242.84,176.108Z" transform="translate(-166.487 -121.626)"/>
  <path id="Path_138" data-name="Path 138" class="cls-1" d="M175.375,127.892l-3.875.754.312-1.43,3.641-.416Z" transform="translate(-126.9 -93.825)"/>
  <path id="Path_139" data-name="Path 139" class="cls-1" d="M185.051,127.086c-.052.442-.234.832-.468.884-.208.052-.364-.26-.312-.7.026-.442.234-.832.468-.884.208-.052.364.26.312.7" transform="translate(-136.343 -93.513)"/>
  <path id="Path_140" data-name="Path 140" class="cls-1" d="M171.948,128.413c-.052.442-.26.832-.494.884-.208.052-.338-.286-.286-.728s.26-.858.494-.884c.208-.052.338.286.286.728" transform="translate(-126.646 -94.476)"/>
  <path id="Path_141" data-name="Path 141" class="cls-2" d="M175.482,127.791c-.052.026-.13.052-.182.078l-2.523.26c-.026-.052-.078-.078-.182-.052a.808.808,0,0,0-.52.416c-.078.182-.052.312.078.312h.078c.026,0,.026,0,.052-.026v-.026c-.052-.052-.052-.13,0-.26a.717.717,0,0,1,.442-.39c.078,0,.13,0,.156.052l2.236-.234a1.267,1.267,0,0,1,.182-.078c.156-.026.234.1.156.286a.609.609,0,0,1-.312.312v.026h.026a.781.781,0,0,0,.494-.416c.078-.156,0-.286-.182-.26" transform="translate(-127.293 -94.555)"/>
  <path id="Path_142" data-name="Path 142" class="cls-2" d="M186.1,125.126l3.407,3.225,11.052,3.277,10.116-4.681-1.95-1.846-11.781,3.433Z" transform="translate(-137.703 -92.567)"/>
  <path id="Path_143" data-name="Path 143" class="cls-2" d="M196.865,134.984l12.041-6.215L206.7,125.7l-11.1,6.527L181.6,127.65l.312,2.132" transform="translate(-134.374 -93.011)"/>
  <path id="Path_144" data-name="Path 144" class="cls-1" d="M295.5,218.7" transform="translate(-218.653 -161.826)"/>
  <path id="Path_145" data-name="Path 145" class="cls-2" d="M264.925,195.219c0,2.783-1.3,5.019-2.913,5.019S259.1,198,259.1,195.219s1.3-5.019,2.913-5.019,2.913,2.236,2.913,5.019" transform="translate(-191.719 -140.737)"/>
  <path id="Path_146" data-name="Path 146" class="cls-1" d="M401.265,145.2c-.494,1.326-.988,2.653-1.508,3.953-.858-2.471-1.768-4.889-2.757-7.256,1.144.52,2.289,1.04,3.433,1.586.286.572.546,1.144.832,1.716" transform="translate(-293.757 -104.998)"/>
  <path id="Path_147" data-name="Path 147" class="cls-1" d="M348.5,213.1c-1.872.962-3.771,1.872-5.7,2.679.286.65.52,1.3.78,1.95,1.976-.806,3.953-1.716,5.929-2.679a15.179,15.179,0,0,1-1.014-1.95" transform="translate(-253.653 -157.682)"/>
  <path id="Path_148" data-name="Path 148" class="cls-1" d="M349.371,193.9c-1.248.728-2.5,1.43-3.771,2.08l.936,1.872c1.066-.52,2.132-1.092,3.2-1.69a20.54,20.54,0,0,1-.364-2.262" transform="translate(-255.724 -143.475)"/>
  <path id="Path_149" data-name="Path 149" class="cls-1" d="M361.087,137.051q-2.106,1.677-4.291,3.2c-.39-.572-.78-1.144-1.2-1.716.65-.468,1.3-.962,1.924-1.456,1.378-.052,2.549-.052,3.563-.026" transform="translate(-263.124 -101.398)"/>
  <g id="Group_324" data-name="Group 324" transform="translate(43.794)">
    <path id="Path_150" data-name="Path 150" class="cls-1" d="M197.11,121.8l-11.182,2.887-2.7,1.95L168.4,123.49l20.961,8.348,13.549-5.9Z" transform="translate(-168.4 -90.125)"/>
    <path id="Path_151" data-name="Path 151" class="cls-1" d="M321.215,44.964,313.049,3.459,305.716.208l-3.8,3.381-.754,6.163-2.679,5.071,2.939,1.586-.494.442-3.355-1.846,2.913-5.539.676-6.033L303.9.91,302.465,0l-3.719,3.433-.962,5.643-10.74,20.206L284.1,27.41s-11.338,5.2-14.693,6.787c-2,.936-6.241,2.757-6.241,2.757l-9.18,4.369-1.69,2.6,9,2.679,2.21,5.929c-.39,1.17-.806,2.341-1.248,3.485,1.612-.676,6.683-1.95,9.336-2.887.156.572.312,1.118.494,1.638a.2.2,0,0,0-.13.052.3.3,0,0,0-.13.312,12.768,12.768,0,0,0,.624,2.132.523.523,0,0,0,.234.286c.416.234.832.468,1.248.676a6.258,6.258,0,0,0,4.239,2.627c5.825.546,9.232.39,11.1-.286.65-.026,1.3-.026,1.95-.052.52-.624,1.066-1.248,1.586-1.9L292.5,56.9a3.235,3.235,0,0,0,.26-.52c.416-.182.832-.39,1.248-.572.26-.676.52-1.378.78-2.08-.26-.312-.494-.624-.754-.936.052-.26.13-.546.182-.832.338-.156.65-.338.988-.52.078-.754.156-1.534.234-2.315l-.884-.962c0-.52-.026-1.04-.052-1.534.312-.338.6-.676.91-1.014-.026-.676-.052-1.352-.078-2-.52-.286-1.014-.6-1.534-.884-.078-.234-.156-.494-.234-.728l3.485-8.712,9.232-9.31L314.324,43.4l-.494-.208-1.846-1.352-1.456-.052L309.721,40l-.988.364.026,1.092-.65.234-.416-.988-.91.338.026,1.04-.754.312-.364-.988-.988.416.052,1.118-.676.26-.286-1.014-1.118.442s.65,12.119,8.816,14.147a10.228,10.228,0,0,0,6.423-.728l-.052-.026a5.87,5.87,0,0,0,1.82-1.846l2.913-7.646ZM292.531,24.549l3.615-8.218,3.485,1.742ZM305.768,8.192l.91-2.132h1.794l.91,2.132-.91,2.132h-1.794Zm11.469,36.46-.832-.338L307.666,22.6l.832-.858,8.868,22.885Z" transform="translate(-230.481)"/>
  </g>
  <path id="Path_152" data-name="Path 152" class="cls-2" d="M372.278,164.908c0,4.031-1.9,7.308-4.239,7.308s-4.239-3.277-4.239-7.308,1.9-7.308,4.239-7.308,4.239,3.277,4.239,7.308" transform="translate(-269.191 -116.615)"/>
  <path id="Path_153" data-name="Path 153" class="cls-2" d="M386.4,114.6" transform="translate(-285.914 -84.797)"/>
  <path id="Path_154" data-name="Path 154" class="cls-1" d="M309.839,187.9l-4.837.6-.7.078.026,1.248.026,1.43.676-.1L305,189.72l4.811-.65Z" transform="translate(-225.165 -139.035)"/>
  <g id="Group_325" data-name="Group 325" transform="translate(68.577 51.439)">
    <path id="Path_155" data-name="Path 155" class="cls-1" d="M267.393,200.817c0,1.664-.832,3.017-1.846,3.017s-1.846-1.352-1.846-3.017.832-3.017,1.846-3.017,1.846,1.352,1.846,3.017" transform="translate(-263.7 -197.8)"/>
    <path id="Path_156" data-name="Path 156" class="cls-1" d="M268.193,203.236c0,1.222-.546,2.237-1.2,2.237s-1.2-.988-1.2-2.237S266.32,201,267,201s1.2,1.014,1.2,2.236" transform="translate(-265.254 -200.168)"/>
    <path id="Path_157" data-name="Path 157" class="cls-2" d="M269.2,202.423c0,1.378-.6,2.5-1.352,2.5s-1.352-1.118-1.352-2.5.6-2.523,1.352-2.523c.754.026,1.352,1.144,1.352,2.523" transform="translate(-265.772 -199.354)"/>
    <path id="Path_158" data-name="Path 158" class="cls-1" d="M271.6,203.754a2.01,2.01,0,0,1-1.534,2.054c-.65,0-1.17-.936-1.17-2.054,0-1.144.52-2.054,1.17-2.054a2.01,2.01,0,0,1,1.534,2.054" transform="translate(-267.548 -200.686)"/>
  </g>
  <path id="Path_159" data-name="Path 159" class="cls-2" d="M243.278,139.471l-8.114-2.653L234.8,135.7l8.79,2.184Z" transform="translate(-173.739 -100.41)"/>
  <path id="Path_160" data-name="Path 160" class="cls-1" d="M61.633,86.257,57.473,65.4,13.757,67.584l-1.638,4.863L7.178,75.542H1.456l-.936.936.6,1.066L2,76.66h1.69l.884.936H6.761l-.884.884H4.161l-.936-.936H1.144L0,78.585l1.092,1.82h.884l3.693,5.331,15.655.13L41.9,92.576l2.028-3.147L30.453,85.944Zm-15.707-9.6h3.641l1.716,2.132,4.369,2.184-.988-10.038,1.144-.884,2.471,13.471L50.555,79.7l-1.768-2.132H45.016Zm-7.334,0h1.69l.884.936h2.158l-.884.884h-1.69l-.936-.936H37.708Zm-7.308,0h1.69l.884.936h2.158l-.884.884h-1.69l-.936-.936H30.4Zm-7.308,0h1.69l.884.936H28.71l-.884.884h-1.69l-.936-.936H23.093Zm-10.792,1.82h-1.69l-.936-.936H8.452l.884-.884h1.69l.884.936h2.158Zm2.575-.936.884-.884h1.69l.884.936h2.158l-.884.884H18.8l-.936-.936Z" transform="translate(0 -48.392)"/>
  <path id="Path_161" data-name="Path 161" class="cls-2" d="M347.175,196.6l-3.745,1.482-.13.7,3.745-1.482Z" transform="translate(-254.022 -145.473)"/>
  <path id="Path_162" data-name="Path 162" class="cls-2" d="M353.675,213.1l-3.745,1.456-.13.7,3.745-1.456Z" transform="translate(-258.832 -157.682)"/>
  <path id="Path_163" data-name="Path 163" class="cls-2" d="M346.3,177.4l-3.745,1.456-.156.7,3.771-1.456Z" transform="translate(-253.357 -131.266)"/>
  <path id="Path_164" data-name="Path 164" class="cls-2" d="M351.5,158.4l-3.771,1.456-.13.7,3.745-1.456Z" transform="translate(-257.204 -117.207)"/>
  <path id="Path_165" data-name="Path 165" class="cls-2" d="M326.5,208.6l4.265,1.534.156.754-4.239-1.56Z" transform="translate(-241.591 -154.352)"/>
  <path id="Path_166" data-name="Path 166" class="cls-2" d="M323.2,190.9l3.953,1.482.156.676-3.953-1.456Z" transform="translate(-239.15 -141.255)"/>
  <path id="Path_167" data-name="Path 167" class="cls-2" d="M325.2,170.1l3.745,1.456.13.7L325.33,170.8Z" transform="translate(-240.63 -125.864)"/>
  <path id="Path_168" data-name="Path 168" class="cls-2" d="M226.2,221.7l3.589,1.3.13.624-3.589-1.3Z" transform="translate(-167.375 -164.045)"/>
  <path id="Path_169" data-name="Path 169" class="cls-2" d="M245.619,215.4l-3.589,1.3-.13.624,3.589-1.3Z" transform="translate(-178.992 -159.384)"/>
  <path id="Path_170" data-name="Path 170" class="cls-2" d="M243.845,200.5l-3.589,1.3-.156.624,3.589-1.3Z" transform="translate(-177.66 -148.359)"/>
  <path id="Path_171" data-name="Path 171" class="cls-2" d="M247.779,185l-3.823,1.3-.156.624,3.823-1.3Z" transform="translate(-180.398 -136.889)"/>
  <path id="Path_172" data-name="Path 172" class="cls-2" d="M224.6,206.2l3.355,1.326.1.624-3.329-1.326Z" transform="translate(-166.191 -152.576)"/>
  <path id="Path_173" data-name="Path 173" class="cls-2" d="M226,190.5l3.459,1.326.13.624-3.459-1.326Z" transform="translate(-167.227 -140.959)"/>
  <path id="Path_174" data-name="Path 174" class="cls-2" d="M138.3,221.7l3.589,1.3.156.624-3.589-1.3Z" transform="translate(-102.334 -164.045)"/>
  <path id="Path_175" data-name="Path 175" class="cls-2" d="M157.745,215.4l-3.589,1.3-.156.624,3.589-1.3Z" transform="translate(-113.951 -159.384)"/>
  <path id="Path_176" data-name="Path 176" class="cls-2" d="M156.019,200.5l-3.589,1.3-.13.624,3.589-1.3Z" transform="translate(-112.693 -148.359)"/>
  <path id="Path_177" data-name="Path 177" class="cls-2" d="M159.953,185l-3.823,1.3-.13.624,3.8-1.3Z" transform="translate(-115.431 -136.889)"/>
  <path id="Path_178" data-name="Path 178" class="cls-2" d="M136.7,206.2l3.355,1.326.13.624-3.355-1.326Z" transform="translate(-101.15 -152.576)"/>
  <path id="Path_179" data-name="Path 179" class="cls-2" d="M138.1,190.5l3.459,1.326.156.624-3.485-1.326Z" transform="translate(-102.186 -140.959)"/>
  <g id="Group_326" data-name="Group 326" transform="translate(96.507 44.054)">
    <path id="Path_180" data-name="Path 180" class="cls-1" d="M376.3,173.665c0,2.367-1.17,4.265-2.6,4.265s-2.6-1.9-2.6-4.265c0-2.341,1.17-4.265,2.6-4.265,1.43.026,2.6,1.924,2.6,4.265" transform="translate(-371.1 -169.4)"/>
    <path id="Path_181" data-name="Path 181" class="cls-1" d="M377.455,177.147c0,1.742-.754,3.147-1.69,3.147s-1.664-1.4-1.664-3.147.754-3.147,1.664-3.147c.936,0,1.69,1.4,1.69,3.147" transform="translate(-373.32 -172.804)"/>
    <path id="Path_182" data-name="Path 182" class="cls-2" d="M378.749,176.037c0,1.95-.858,3.537-1.924,3.537s-1.924-1.586-1.924-3.537.858-3.537,1.924-3.537,1.924,1.586,1.924,3.537" transform="translate(-373.912 -171.694)"/>
    <path id="Path_183" data-name="Path 183" class="cls-1" d="M382.123,177.813c0,1.612-1.248,2.913-2.158,2.913-.936,0-1.664-1.3-1.664-2.913s.754-2.913,1.664-2.913,2.158,1.3,2.158,2.913" transform="translate(-376.428 -173.47)"/>
  </g>
  <path id="Path_184" data-name="Path 184" class="cls-2" d="M234.4,164.894s4.6-2.523,8.27-2.184c3.9.39,5.773,4.109,5.773,4.109a8.975,8.975,0,0,0-1.768-2.809,6.821,6.821,0,0,0-5.747-1.846,10.543,10.543,0,0,0-4.291,1.3A17.091,17.091,0,0,0,234.4,164.894Z" transform="translate(-173.443 -119.956)"/>
  <path id="Path_185" data-name="Path 185" class="cls-2" d="M473.1,167.5l1.04.234a25.289,25.289,0,0,0,2.6,7.516,17.448,17.448,0,0,0,2.861,4.213,16.446,16.446,0,0,1-4.785-6.163A24.511,24.511,0,0,1,473.1,167.5Z" transform="translate(-350.067 -123.94)"/>
  <path id="Path_186" data-name="Path 186" class="cls-2" d="M352.55,121.57a11.291,11.291,0,0,1,3.927,1.508,2.015,2.015,0,0,0,.572-.156l-4.083-2.523c-4.6.442-7.594,1.872-9.466,5.2A13.977,13.977,0,0,1,352.55,121.57Z" transform="translate(-254.17 -89.089)"/>
</svg>
