<?xml version="1.0" encoding="utf-8"?>
<!-- Generator: Adobe Illustrator 16.0.0, SVG Export Plug-In . SVG Version: 6.00 Build 0)  -->
<!DOCTYPE svg PUBLIC "-//W3C//DTD SVG 1.1//EN" "http://www.w3.org/Graphics/SVG/1.1/DTD/svg11.dtd">
<svg version="1.1" id="Layer_1" xmlns="http://www.w3.org/2000/svg" xmlns:xlink="http://www.w3.org/1999/xlink" x="0px" y="0px"
	 width="1416px" height="916px" viewBox="0 0 1416 916" enable-background="new 0 0 1416 916" xml:space="preserve">
<g>
	<defs>
		<rect id="SVGID_1_" x="-141.601" y="-361.601" width="1699.2" height="1099.2"/>
	</defs>
	<clipPath id="SVGID_2_">
		<use xlink:href="#SVGID_1_"  overflow="visible"/>
	</clipPath>
	<path clip-path="url(#SVGID_2_)" fill="#030500" d="M739.646,162.229h62.584c20.81,0,33.981,14.474,33.981,32.032
		c0,13.65-5.524,23.89-18.376,29.093v0.327c12.521,3.249,16.1,15.44,16.914,27.145c0.479,7.314,0.329,20.972,4.875,27.472h-25.519
		c-3.098-7.318-2.771-18.528-4.066-27.804c-1.79-12.188-6.5-17.551-19.348-17.551h-25.521v45.354h-25.526L739.646,162.229z
		 M765.176,214.736h27.961c11.375,0,17.562-4.875,17.562-16.584c0-11.21-6.187-16.081-17.562-16.081h-27.961V214.736z"/>
</g>
<g>
	<defs>
		<rect id="SVGID_3_" x="-141.601" y="-361.601" width="1699.2" height="1099.2"/>
	</defs>
	<clipPath id="SVGID_4_">
		<use xlink:href="#SVGID_3_"  overflow="visible"/>
	</clipPath>
	<path clip-path="url(#SVGID_4_)" fill="#030500" d="M855.117,162.229h86.781v21.467h-61.261v24.86h56.238v19.837h-56.238v28.451
		h62.581v21.453h-88.102V162.229z"/>
</g>
<g>
	<defs>
		<rect id="SVGID_5_" x="-141.601" y="-361.601" width="1699.2" height="1099.2"/>
	</defs>
	<clipPath id="SVGID_6_">
		<use xlink:href="#SVGID_5_"  overflow="visible"/>
	</clipPath>
	<path clip-path="url(#SVGID_6_)" fill="#030500" d="M990.797,183.694h-34.786v-21.466h95.093v21.466h-34.789v94.603h-25.518
		V183.694z"/>
</g>
<g>
	<defs>
		<rect id="SVGID_7_" x="-141.601" y="-361.601" width="1699.2" height="1099.2"/>
	</defs>
	<clipPath id="SVGID_8_">
		<use xlink:href="#SVGID_7_"  overflow="visible"/>
	</clipPath>
	<path clip-path="url(#SVGID_8_)" fill="#030500" d="M1066.9,162.229h62.567c20.814,0,33.989,14.474,33.989,32.032
		c0,13.65-5.531,23.89-18.376,29.093v0.327c12.518,3.249,16.094,15.44,16.912,27.145c0.479,7.314,0.315,20.972,4.863,27.472h-25.507
		c-3.097-7.318-2.767-18.528-4.068-27.804c-1.786-12.188-6.495-17.551-19.343-17.551h-25.521v45.354H1066.9V162.229z
		 M1092.419,214.736h27.965c11.374,0,17.558-4.875,17.558-16.584c0-11.21-6.184-16.081-17.558-16.081h-27.965V214.736z"/>
</g>
<g>
	<defs>
		<rect id="SVGID_9_" x="-141.601" y="-361.601" width="1699.2" height="1099.2"/>
	</defs>
	<clipPath id="SVGID_10_">
		<use xlink:href="#SVGID_9_"  overflow="visible"/>
	</clipPath>
	<path clip-path="url(#SVGID_10_)" fill="#030500" d="M1232.257,159.469c35.924,0,57.054,26.817,57.054,61.277
		c0,33.495-21.13,60.322-57.054,60.322c-35.938,0-57.073-26.826-57.073-60.322C1175.184,186.286,1196.317,159.469,1232.257,159.469
		 M1232.257,259.604c22.91,0,31.524-19.51,31.524-38.856c0-20.314-8.614-39.824-31.524-39.824c-22.926,0-31.542,19.51-31.542,39.824
		C1200.715,240.094,1209.33,259.604,1232.257,259.604"/>
</g>
<g>
	<defs>
		<rect id="SVGID_11_" x="-141.601" y="-361.601" width="1699.2" height="1099.2"/>
	</defs>
	<clipPath id="SVGID_12_">
		<use xlink:href="#SVGID_11_"  overflow="visible"/>
	</clipPath>
	<path clip-path="url(#SVGID_12_)" fill="#FFFFFF" d="M389.744,303.356c-6.894,3.602-13.851,6.919-20.836,9.906
		c0.628,1.506,1.244,3.023,1.84,4.559c0.27,0.109,0.558,0.192,0.824,0.277c0.979,0.29,1.972,0.533,2.954,0.656
		c6.443-2.69,12.816-5.646,19.142-8.88C392.227,307.949,390.916,305.745,389.744,303.356"/>
</g>
<g>
	<defs>
		<rect id="SVGID_13_" x="-141.601" y="-361.601" width="1699.2" height="1099.2"/>
	</defs>
	<clipPath id="SVGID_14_">
		<use xlink:href="#SVGID_13_"  overflow="visible"/>
	</clipPath>
	<path clip-path="url(#SVGID_14_)" fill="#D19400" d="M879.864,109.292c0-6.129-1.242-8.792-5.069-8.792
		c-4.308,0-5.32,4.31-5.32,16.228c0,12.718,1.775,15.04,5.435,15.04c3.067,0,5.309-1.596,5.309-10.682h8.487
		c0,9.086-2.241,16.925-13.39,16.925c-12.732,0-14.326-9.096-14.326-21.881c0-12.791,1.594-21.876,14.326-21.876
		c12.161,0,13.034,8.909,13.034,15.038H879.864z M902.426,137.191V95.079h8.482v35.152h15.055v6.96H902.426z M946.562,95.079v29.376
		c0,4.185,1.013,7.312,4.965,7.312c3.955,0,4.955-3.128,4.955-7.312V95.079h8.487v29.376c0,10.73-6.551,13.556-13.442,13.556
		c-6.902,0-13.453-2.289-13.453-13.556V95.079H946.562z M979.223,95.079h14.217c6.953,0,11.97,2.599,11.97,10.668
		c0,4.548-2.177,8.045-6.372,9.207v0.115c4.664,0.646,7.675,4.191,7.675,9.794c0,6.611-3.242,12.328-13.16,12.328h-14.328
		L979.223,95.079L979.223,95.079z M987.71,112.354h2.419c4.667,0,6.792-1.595,6.792-5.544c0-4.005-1.952-5.487-6.146-5.487h-3.065
		V112.354z M987.71,130.941h3.308c4.066,0,6.844-1.496,6.844-6.357c0-4.916-2.776-6.324-6.489-6.324h-3.661L987.71,130.941
		L987.71,130.941z M1044.436,95.079v6.951h-15.047v9.909h14.166v6.968h-14.166v11.324h15.633v6.96h-24.105V95.079H1044.436z
		 M1089.707,95.079h13.926c11.809,0,13.922,8.084,13.922,20.459c0,14.925-3.182,21.653-14.456,21.653h-13.39V95.079H1089.707z
		 M1098.211,130.941h3.774c5.9,0,7.079-3.718,7.079-15.161c0-9.565-0.773-14.458-7.26-14.458h-3.595L1098.211,130.941
		L1098.211,130.941z M1138.23,95.079h10.502l11.146,42.112h-8.856l-1.939-8.907h-11.212l-1.944,8.907h-8.848L1138.23,95.079z
		 M1139.344,121.344h8.26l-4.066-18.955h-0.112L1139.344,121.344z M833.422,112.496h-95.494v3.244h95.494V112.496z
		 M1282.598,112.496h-95.495v3.244h95.495V112.496z"/>
</g>
<g>
	<g>
		<defs>
			<rect id="SVGID_15_" x="-141.601" y="-361.601" width="1699.2" height="1099.2"/>
		</defs>
		<clipPath id="SVGID_16_">
			<use xlink:href="#SVGID_15_"  overflow="visible"/>
		</clipPath>
		<path clip-path="url(#SVGID_16_)" fill="#030500" d="M153.853,302.256h1133.18v15.503H153.853V302.256z"/>
	</g>
	<g>
		<defs>
			<rect id="SVGID_17_" x="-141.601" y="-361.601" width="1699.2" height="1099.2"/>
		</defs>
		<clipPath id="SVGID_18_">
			<use xlink:href="#SVGID_17_"  overflow="visible"/>
		</clipPath>
		<path clip-path="url(#SVGID_18_)" fill="#030500" d="M327.618,146.905l22.862,14.206l-19.185,2.408L327.618,146.905z"/>
	</g>
	<g>
		<defs>
			<rect id="SVGID_19_" x="-141.601" y="-361.601" width="1699.2" height="1099.2"/>
		</defs>
		<clipPath id="SVGID_20_">
			<use xlink:href="#SVGID_19_"  overflow="visible"/>
		</clipPath>
		<path clip-path="url(#SVGID_20_)" fill="#030500" d="M523.334,69.729l-1.889-4.242L463.59,50.436
			c-0.887-2.257-3.282-4.736-5.73-4.257L446.078,48.5c-2.354,0.455-3.983,3.572-4.108,5.852l-56.104,11.632
			c-0.274-0.71-0.757-1.329-1.39-1.766c-0.812-0.548-1.84-0.749-2.795-0.562l-8.583,1.679c-0.968,0.196-1.815,0.759-2.365,1.58
			c-0.465,0.688-0.664,1.512-0.604,2.333l-7.115,1.476l-1.739,5.375l102.954-16.777L523.334,69.729z"/>
	</g>
	<g>
		<defs>
			<rect id="SVGID_21_" x="-141.601" y="-361.601" width="1699.2" height="1099.2"/>
		</defs>
		<clipPath id="SVGID_22_">
			<use xlink:href="#SVGID_21_"  overflow="visible"/>
		</clipPath>
		<path clip-path="url(#SVGID_22_)" fill="#030500" d="M462.176,63.957l-5.581,111.398c37.473-16.61,67.056-20.589,67.056-20.589
			l-2.608-81.938L462.176,63.957z M498.57,144.471c-13.453,7.045-29.86,12.36-29.86,12.36c-4.699-2.094-5.843-14.732-5.147-27.309
			l35.975-2.934L498.57,144.471z M500.077,114.312c-0.14,1.45-0.333,2.891-0.529,3.312c-2.569,5.472-29.412,5.469-35.138,5.406
			c0.193-21.787,1.553-52.771,1.553-52.771c3.821-0.146,25.965,2.766,36.379,4.304L500.077,114.312z M504.582,141.808l0.072-66.899
			c5.126,0.768,12.453,1.905,12.453,1.905s0.117,45.662-1.15,59.182C515.566,140.176,511.549,139.743,504.582,141.808"/>
	</g>
	<g>
		<defs>
			<rect id="SVGID_23_" x="-141.601" y="-361.601" width="1699.2" height="1099.2"/>
		</defs>
		<clipPath id="SVGID_24_">
			<use xlink:href="#SVGID_23_"  overflow="visible"/>
		</clipPath>
		<path clip-path="url(#SVGID_24_)" fill="#030500" d="M549.007,244.523c0-3.987-1.649-7.539-3.825-9.978
			c-2.052-5.876-5.907-9.842-10.321-9.842c-6.565,0-11.887,8.725-11.887,19.493c0,10.79,5.32,19.508,11.887,19.508
			c4.146,0,7.805-3.499,9.935-8.801C547.161,252.465,549.007,248.724,549.007,244.523 M536.314,260.721
			c-4.84,0-8.776-7.234-8.776-16.188c0-8.979,3.938-16.236,8.776-16.236c2.081,0,3.995,1.353,5.503,3.601
			c-0.915-0.451-1.829-0.709-2.685-0.709c-4.23,0-7.635,5.935-7.635,13.341c0,7.36,3.403,13.323,7.635,13.323
			c0.853,0,1.761-0.255,2.674-0.703C540.301,259.377,538.392,260.721,536.314,260.721"/>
	</g>
	<g>
		<defs>
			<rect id="SVGID_25_" x="-141.601" y="-361.601" width="1699.2" height="1099.2"/>
		</defs>
		<clipPath id="SVGID_26_">
			<use xlink:href="#SVGID_25_"  overflow="visible"/>
		</clipPath>
		<path clip-path="url(#SVGID_26_)" fill="#030500" d="M431.992,262.054c0-3.521-1.455-6.65-3.372-8.8
			c-1.812-5.175-5.209-8.673-9.094-8.673c-5.792,0-10.479,7.693-10.479,17.181c0,9.51,4.688,17.196,10.479,17.196
			c3.651,0,6.876-3.084,8.754-7.759C430.365,269.049,431.992,265.755,431.992,262.054 M420.804,276.324
			c-4.264,0-7.734-6.375-7.734-14.271c0-7.912,3.472-14.308,7.734-14.308c1.835,0,3.522,1.191,4.852,3.173
			c-0.808-0.396-1.613-0.624-2.365-0.624c-3.729,0-6.729,5.226-6.729,11.759c0,6.486,3,11.74,6.729,11.74
			c0.75,0,1.553-0.226,2.354-0.62C424.318,275.142,422.634,276.324,420.804,276.324"/>
	</g>
	<g>
		<defs>
			<rect id="SVGID_27_" x="-141.601" y="-361.601" width="1699.2" height="1099.2"/>
		</defs>
		<clipPath id="SVGID_28_">
			<use xlink:href="#SVGID_27_"  overflow="visible"/>
		</clipPath>
		<path clip-path="url(#SVGID_28_)" fill="#030500" d="M341.664,226.078l-19.069-95.444l-200.13,10.043l-7.506,22.239L92.355,177.11
			h-26.2l-4.229,4.229l2.763,4.923l4.088-4.043h7.753l4.04,4.276h9.838l-4.085,4.048h-7.754l-4.256-4.28h-9.624l-5.186,4.798
			l4.952,8.375h4.058L85.37,223.85L341.664,226.078z M269.686,182.22h16.682l7.83,9.75l19.962,9.984l-4.536-46.008l5.264-4.096
			l11.363,61.641l-35.34-17.524l-8.036-9.705h-17.276L269.686,182.22z M236.2,182.22h7.753l4.04,4.276h9.84l-4.087,4.048h-7.754
			l-4.256-4.28h-9.623L236.2,182.22z M202.716,182.22h7.753l4.04,4.276h9.838l-4.087,4.048h-7.752l-4.256-4.28h-9.622
			L202.716,182.22z M169.23,182.22h7.753l4.041,4.276h9.837l-4.085,4.048h-7.752l-4.257-4.28h-9.623L169.23,182.22z
			 M119.807,190.543h-7.752l-4.257-4.28h-9.623l4.087-4.043h7.753l4.04,4.276h9.839L119.807,190.543z M131.66,186.263l4.086-4.043
			h7.752l4.041,4.276h9.839l-4.088,4.048h-7.752l-4.254-4.28L131.66,186.263z"/>
	</g>
	<g>
		<defs>
			<rect id="SVGID_29_" x="-141.601" y="-361.601" width="1699.2" height="1099.2"/>
		</defs>
		<clipPath id="SVGID_30_">
			<use xlink:href="#SVGID_29_"  overflow="visible"/>
		</clipPath>
		<path clip-path="url(#SVGID_30_)" fill="#030500" d="M702.577,235.488l-5.317-6.398c-0.151-0.183-0.255-0.399-0.302-0.634
			L659.742,39.585c-0.09-0.454-0.396-0.837-0.816-1.025l-32.018-14.304c-0.511-0.229-1.108-0.136-1.527,0.238l-16.266,14.512
			c-0.258,0.232-0.423,0.548-0.464,0.893l-3.317,27.381c-0.021,0.174-0.074,0.343-0.153,0.495l-11.542,21.831
			c-0.364,0.691-0.104,1.548,0.584,1.919l10.432,5.609c0.86,0.465,1.009,1.643,0.287,2.305c-0.451,0.413-1.114,0.49-1.65,0.195
			l-13.21-7.296c-0.678-0.375-0.932-1.222-0.573-1.908l12.523-23.864c0.081-0.157,0.134-0.326,0.152-0.501l3.053-26.81
			c0.039-0.339,0.197-0.653,0.448-0.885l10.789-9.956c0.689-0.638,0.585-1.756-0.212-2.254l-4.165-2.605
			c-0.545-0.339-1.249-0.273-1.72,0.163L594.457,38.4c-0.229,0.214-0.385,0.498-0.437,0.809l-4.26,25.096
			c-0.023,0.151-0.072,0.296-0.146,0.431l-49.103,92.252l-17.18,2.401c0,0-48.188,12.894-63.577,20.094
			c-2.327,1.089-5.33,2.442-8.509,3.857l7.16-119.383l-95.002,14.723c0,0-7.578,23.035-13.616,82.44
			c4.112-0.357,8.004-0.536,12.02-0.697l-24.984,28.071l7.043,35.021l37.527-43.382l13.593,10.235
			c1.023-0.147,2.081-0.287,3.212-0.406c15.488-1.617,25.64,4.368,31.709,10.514c1.912,1.936,3.586,4.229,4.98,6.468
			c3.055,4.879,4.786,9.495,4.786,9.495s-0.021-0.047-0.057-0.11l0.022,0.053c0,0-0.484-0.997-1.456-2.58
			c-3.55-5.758-13.49-19.077-30.325-20.761c-5.389-0.538-11.148,0.096-16.7,1.312l-0.064-0.047
			c-12.197,2.679-23.372,8.158-27.349,10.243l-20.04,24.332l-89.239-0.775c-3.795,5.297-6.475,13.391-8.098,21.975l15.128,5.693
			l0.602,2.858l-15.881-5.974l-0.168-0.803c-0.975,5.7-1.492,11.537-1.567,16.848l14.803,5.759l0.581,2.865l-15.342-5.971
			l-0.035-0.17c0.122,5.969,1.202,11.487,3.025,16.312l14.798,5.384l0.623,2.863l-14.088-5.124
			c4.461,9.376,11.906,15.51,20.299,16.179c31.94,2.566,42.736-0.041,44.612-5.446c4.996-4.585,8.809-11.745,10.604-20.241
			c0.131-0.059,0.259-0.115,0.39-0.173h27.362c5.892,19.38,20.33,32.757,33.28,33.948c44.346,4.115,54.711-1.108,53.493-10.847
			c5.834-7.726,9.996-19.005,11.393-31.96c7.116-2.06,14.311-4.159,19.502-5.943c0.492,1.966,1.062,3.854,1.673,5.701l17.906,6.516
			l0.737,3.394l-19.188-6.979c-0.034,0.181-0.048,0.364-0.007,0.549c0.753,3.455,1.709,6.742,2.848,9.81
			c0.2,0.562,0.605,1.028,1.121,1.325c1.902,1.062,3.81,2.104,5.719,3.131c5.439,6.996,12.14,11.367,19.365,12.038
			c26.674,2.473,42.267,1.733,50.802-1.271c2.992-0.07,5.982-0.141,8.978-0.225c2.439-2.842,4.851-5.748,7.254-8.679
			c-0.45-2.64-0.925-5.271-1.408-7.896c0.428-0.753,0.844-1.526,1.247-2.321c1.91-0.866,3.817-1.733,5.725-2.619
			c1.222-3.144,2.412-6.312,3.572-9.487c-1.145-1.453-2.298-2.893-3.453-4.33c0.285-1.24,0.553-2.497,0.786-3.779
			c1.5-0.771,2.999-1.547,4.495-2.333c0.396-3.504,0.753-7.014,1.101-10.538c-1.353-1.481-2.715-2.947-4.078-4.41
			c-0.008-2.398-0.106-4.757-0.28-7.075c1.398-1.539,2.793-3.091,4.181-4.651c-0.073-3.066-0.189-6.141-0.313-9.211
			c-2.341-1.365-4.688-2.695-7.037-4.026c-0.324-1.116-0.67-2.21-1.035-3.28l15.904-39.94l30.119-65.701
			c0.52-1.129,2.135-1.099,2.61,0.05l46.328,111.896l-2.15-0.905c-0.102-0.042-0.198-0.097-0.288-0.161l-7.94-5.798
			c-0.229-0.167-0.499-0.263-0.783-0.273l-5.416-0.212c-0.537-0.021-1.018-0.343-1.239-0.829l-2.819-6.168
			c-0.31-0.679-1.088-1.002-1.787-0.743l-2.337,0.865c-0.571,0.212-0.944,0.762-0.932,1.369l0.07,2.907
			c0.016,0.617-0.371,1.174-0.952,1.379l-0.729,0.255c-0.712,0.248-1.494-0.102-1.785-0.797l-0.84-2.021
			c-0.296-0.712-1.104-1.06-1.824-0.782l-1.949,0.747c-0.564,0.216-0.934,0.767-0.915,1.371l0.08,2.748
			c0.02,0.593-0.333,1.134-0.882,1.358l-1.182,0.483c-0.743,0.305-1.591-0.062-1.872-0.812l-0.674-1.78
			c-0.283-0.749-1.127-1.117-1.866-0.814l-2.259,0.917c-0.559,0.229-0.914,0.783-0.886,1.387l0.146,3.078
			c0.025,0.617-0.344,1.182-0.919,1.398l-0.726,0.274c-0.785,0.298-1.653-0.146-1.877-0.955l-0.436-1.593
			c-0.227-0.82-1.115-1.262-1.902-0.943l-2.631,1.055c-0.581,0.233-0.941,0.813-0.89,1.438c0.639,7.679,5.953,55.191,40.257,63.753
			c15.37,3.833,29.423-3.381,29.423-3.381l-0.259-0.081c4.562-2.605,7.688-7.459,8.205-8.29c0.049-0.078,0.087-0.158,0.12-0.244
			l13.003-34.081C702.997,236.426,702.906,235.885,702.577,235.488 M262.492,270.516l0.621-2.862l16.42-5.976l-0.623,2.866
			L262.492,270.516z M281.01,282.238l-16.417,5.972l0.622-2.864l16.418-5.974L281.01,282.238z M284.354,246.029l-17.493,5.969
			l0.664-2.86l17.493-5.974L284.354,246.029z M374.907,255.998l20.405-7.426l-0.773,3.562l-20.405,7.422L374.907,255.998z
			 M372.897,241.229l0.751,3.557l-19.739-7.424l-0.747-3.561L372.897,241.229z M351.805,260.602l-0.722-3.559l19.066,7.418
			l0.723,3.561L351.805,260.602z M354.283,283.49l-0.774-3.562l20.403,7.424l0.774,3.56L354.283,283.49z M397.15,274.125
			l-20.406,7.422l0.775-3.559l20.403-7.425L397.15,274.125z M401.305,229.125l-21.741,7.418l0.825-3.555l21.741-7.424
			L401.305,229.125z M418.754,290.396c-9.166,0-16.604-12.788-16.604-28.571c0-15.761,7.438-28.545,16.604-28.545
			c9.146,0,16.571,12.784,16.571,28.545C435.325,277.607,427.899,290.396,418.754,290.396 M443.203,145.241
			c-0.277,2.483-3.158,4.574-5.422,4.943c-6.016,0.979-20.643,3.167-35.681,4.327l9.779,5.568l14.643-0.062l-9.797,2.818
			l19.946,11.354l-4.716,1.596l-34.358-20.956l-19.652-11.986l-9.94,11.037c-5.517-1.229-8.995-3.373-8.995-6.83
			c0-18.046,10.443-65.934,10.443-65.934l75.739-11.646c1.242-0.196,3.625,0.199,4.548,1.051c0.917,0.857,1.408,2.09,1.312,3.344
			L443.203,145.241z M533.385,166.458l18.7,11.526c-0.427,0.147-1.338,0.378-2.63,0.674c-6.37-3.851-13.919-6.629-17.931-6.964
			c-19.095,1.542-33.278,9.888-41.527,18.56C498.607,175,512.314,168.477,533.385,166.458 M512.797,211.566l-0.649,3.214
			l-17.161,6.691l0.649-3.208L512.797,211.566z M466.65,253.471l-0.688-3.209l18.062,6.698l0.684,3.208L466.65,253.471z
			 M468.963,228.708l-0.649-3.212l17.159,6.697l0.652,3.211L468.963,228.708z M488.867,244.052l0.65-3.21l17.162-6.698l-0.65,3.212
			L488.867,244.052z M489.821,266.957l0.651-3.21l17.161-6.697l-0.65,3.21L489.821,266.957z M514.75,279.885l-17.16,6.7l0.651-3.215
			l17.159-6.693L514.75,279.885z M533.717,277.405c-10.717,0-19.405-14.959-19.405-33.412c0-18.463,8.688-33.411,19.405-33.411
			c10.731,0,19.408,14.948,19.408,33.411C553.125,262.446,544.448,277.405,533.717,277.405 M661.22,264.058
			c-3.227-4.163-6.479-9.245-8.982-15.128c-4.703-11.036-6.759-20.44-7.496-24.473c-0.185-1.002,0.709-1.868,1.705-1.65l1.768,0.389
			c0.569,0.124,1.003,0.574,1.099,1.147c0.601,3.606,3.278,17.185,11.746,33.516c0.855,1.651,1.699,3.188,2.52,4.612
			C664.457,264.003,662.305,265.456,661.22,264.058 M630.096,69.33l-3.512-8.313c-0.149-0.354-0.149-0.754,0-1.107l3.512-8.315
			c0.222-0.527,0.738-0.87,1.312-0.87h6.347c0.569,0,1.086,0.342,1.31,0.867l3.533,8.315c0.15,0.355,0.15,0.758,0,1.113
			l-3.533,8.313c-0.224,0.526-0.739,0.867-1.31,0.867h-6.347C630.834,70.2,630.316,69.858,630.096,69.33 M678.782,227.396
			l-3.204-1.349c-0.35-0.146-0.627-0.428-0.77-0.778l-39.418-97.926c-0.213-0.527-0.092-1.131,0.309-1.534l1.654-1.668
			c0.727-0.732,1.965-0.473,2.338,0.488l39.791,102.75L678.782,227.396z"/>
	</g>
</g>
</svg>
