<svg xmlns="http://www.w3.org/2000/svg" xmlns:xlink="http://www.w3.org/1999/xlink" viewBox="0 0 192.131 48.958">
  <defs>
    <style>
      .cls-1, .cls-4 {
        fill: #faa21b;
      }

      .cls-2 {
        clip-path: url(#clip-path);
      }

      .cls-3 {
        fill-rule: evenodd;
      }

      .cls-4 {
        font-size: 20px;
        font-family: Helvetica;
      }
    </style>
    <clipPath id="clip-path">
      <rect id="Rectangle_41" data-name="Rectangle 41" width="151.13" height="48.958"/>
    </clipPath>
  </defs>
  <g id="Logo_Case" data-name="Logo Case" transform="translate(41)">
    <path id="Path_45" data-name="Path 45" class="cls-1" d="M11.494,39.3,0,54.8H138.784l4-15.5Z" transform="translate(0 -5.838)"/>
    <g id="Group_62" data-name="Group 62">
      <g id="Group_51" data-name="Group 51" class="cls-2">
        <path id="Path_46" data-name="Path 46" d="M40.6,43.666a8.042,8.042,0,0,0-3.065-.766A4.7,4.7,0,0,0,32.6,47.668a4.606,4.606,0,0,0,4.853,4.513,6.708,6.708,0,0,0,3.235-.766V49.967a5.752,5.752,0,0,1-3.15,1.022,3.381,3.381,0,0,1-3.661-3.406,3.473,3.473,0,0,1,3.576-3.491,5.824,5.824,0,0,1,3.15.937Z" transform="translate(-4.843 -6.373)"/>
      </g>
      <g id="Group_52" data-name="Group 52" class="cls-2">
        <path id="Path_47" data-name="Path 47" class="cls-3" d="M43.9,47.5a4.591,4.591,0,0,0,4.853,4.6,4.589,4.589,0,0,0,4.853-4.6,4.543,4.543,0,0,0-4.853-4.6A4.641,4.641,0,0,0,43.9,47.5m1.362,0a3.382,3.382,0,0,1,3.491-3.406A3.333,3.333,0,0,1,52.244,47.5,3.382,3.382,0,0,1,48.753,50.9,3.284,3.284,0,0,1,45.262,47.5" transform="translate(-6.522 -6.373)"/>
      </g>
      <g id="Group_53" data-name="Group 53" class="cls-2">
        <path id="Path_48" data-name="Path 48" d="M66.344,43H65.152v6.982L59.022,43H58v9.025h1.192v-6.9l6.045,6.9h1.107Z" transform="translate(-8.617 -6.388)"/>
      </g>
      <g id="Group_54" data-name="Group 54" class="cls-2">
        <path id="Path_49" data-name="Path 49" d="M75.168,43.5a3.572,3.572,0,0,0-2.043-.6A2.428,2.428,0,0,0,70.4,45.284c0,2.469,3.917,2.725,3.917,4.6,0,.511-.426,1.107-1.447,1.107a3.077,3.077,0,0,1-2.384-1.277v1.618a3.86,3.86,0,0,0,2.554.851,2.439,2.439,0,0,0,2.554-2.469c0-2.895-3.917-2.81-3.917-4.6,0-.6.6-1.107,1.447-1.107a2.909,2.909,0,0,1,2.129.937V43.5Z" transform="translate(-10.459 -6.373)"/>
      </g>
      <g id="Group_55" data-name="Group 55" class="cls-2">
        <path id="Path_50" data-name="Path 50" d="M85.178,43H77.6v1.192h3.15v7.833h1.277V44.192h3.15Z" transform="translate(-11.528 -6.388)"/>
      </g>
      <g id="Group_56" data-name="Group 56" class="cls-2">
        <path id="Path_51" data-name="Path 51" class="cls-3" d="M88.4,43v9.025h1.277V48.109h.511c.681,0,1.192.17,2.384,2.043l1.192,1.873H95.3A21.408,21.408,0,0,1,94.1,50.237a6.751,6.751,0,0,0-2.043-2.469,2.386,2.386,0,0,0,1.533-2.214c0-1.533-1.107-2.554-2.98-2.554Zm1.277,1.107h.851c1.277,0,1.788.511,1.788,1.362,0,.766-.426,1.447-1.788,1.447h-.851Z" transform="translate(-13.133 -6.388)"/>
      </g>
      <g id="Group_57" data-name="Group 57" class="cls-2">
        <path id="Path_52" data-name="Path 52" d="M105.648,43h-1.277v5.279a2.376,2.376,0,0,1-.6,1.958,2.9,2.9,0,0,1-2.129.766,2.7,2.7,0,0,1-1.958-.766c-.426-.426-.511-.851-.511-1.873V43H97.9v5.619a3.476,3.476,0,0,0,3.746,3.576c2.725,0,4-1.447,4-3.661Z" transform="translate(-14.544 -6.388)"/>
      </g>
      <g id="Group_58" data-name="Group 58" class="cls-2">
        <path id="Path_53" data-name="Path 53" d="M117.5,43.666a8.042,8.042,0,0,0-3.065-.766,4.7,4.7,0,0,0-4.938,4.768,4.606,4.606,0,0,0,4.853,4.513,6.708,6.708,0,0,0,3.235-.766V49.967a5.752,5.752,0,0,1-3.15,1.022,3.381,3.381,0,0,1-3.661-3.406,3.473,3.473,0,0,1,3.576-3.491,5.824,5.824,0,0,1,3.15.937Z" transform="translate(-16.268 -6.373)"/>
      </g>
      <g id="Group_59" data-name="Group 59" class="cls-2">
        <path id="Path_54" data-name="Path 54" d="M128.078,43H120.5v1.192h3.15v7.833h1.277V44.192h3.15Z" transform="translate(-17.902 -6.388)"/>
      </g>
      <g id="Group_60" data-name="Group 60" class="cls-2">
        <rect id="Rectangle_50" data-name="Rectangle 50" width="1.277" height="9.025" transform="translate(111.794 36.612)"/>
      </g>
      <g id="Group_61" data-name="Group 61" class="cls-2">
        <path id="Path_55" data-name="Path 55" class="cls-3" d="M135.5,47.5a4.86,4.86,0,0,0,9.706,0,4.543,4.543,0,0,0-4.853-4.6,4.591,4.591,0,0,0-4.853,4.6m1.277,0a3.382,3.382,0,0,1,3.491-3.406,3.333,3.333,0,0,1,3.491,3.406,3.382,3.382,0,0,1-3.491,3.406,3.284,3.284,0,0,1-3.491-3.406" transform="translate(-20.13 -6.373)"/>
      </g>
    </g>
    <path id="Path_56" data-name="Path 56" d="M157.844,43h-1.192v6.982L150.522,43H149.5v9.025h1.192v-6.9l6.045,6.9h1.107Z" transform="translate(-22.21 -6.388)"/>
    <g id="Group_64" data-name="Group 64">
      <g id="Group_63" data-name="Group 63" class="cls-2">
        <path id="Path_57" data-name="Path 57" class="cls-3" d="M124.928.937h28.779l-1.873,7.152H133.7l-1.022,3.576h17.454l-1.533,5.79H131.144l-.937,3.576h18.306l-1.873,7.237H117.861Zm-39.847,17.8H95.894c0,.085-.085,4,5.619,4,3.917,0,4.513-1.277,4.683-1.788.255-1.022-.511-1.533-1.958-1.873-4.683-1.107-11.154-3.235-12.857-4.257A6,6,0,0,1,88.4,9.366C88.4,5.194,93.34,0,104.068,0a26.174,26.174,0,0,1,10.643,1.958,7.768,7.768,0,0,1,4.513,7.748H108.666s0-3.065-4.427-3.235c-2.214-.085-4.683.255-4.683,2.043,0,1.533,1.533,1.788,5.023,2.639.851.17,6.556,1.362,8.429,2.043,3.321,1.192,4.853,2.98,4.427,6.556-1.107,8-11.58,9.366-16.858,9.366-6.641,0-13.708-1.192-15.156-7.833a14.74,14.74,0,0,1-.341-2.554M72.139,19.5,71.288,9.11,64.476,19.5ZM79.462.937l4.853,27.416H72.65l-.255-3.235H61.156l-2.129,3.235H46.766L66.945.937ZM49.832,19.924a13.7,13.7,0,0,1-2.554,3.661c-2.469,2.639-6.812,5.364-14.219,5.364-9.025,0-12.516-3.235-14.3-6.386a11.57,11.57,0,0,1-1.362-6.726C17.732,12.005,21.394,0,37.4,0c8.94,0,12.516,2.895,13.793,6.215,1.107,2.554.681,6.556.6,6.9H41.317c.341-2.043-.255-5.364-3.831-5.364a9.456,9.456,0,0,0-8.855,6.812c-1.192,4.257,1.277,6.9,5.023,6.982a7.3,7.3,0,0,0,6.13-3.321H50.513c-.085.255-.511,1.277-.681,1.7" transform="translate(-2.577)"/>
      </g>
    </g>
    <text id="BY" class="cls-4" transform="translate(-41 32)"><tspan x="0" y="0">BY</tspan></text>
  </g>
</svg>
